<svg width="60" height="52" viewBox="0 0 60 52" fill="none" xmlns="http://www.w3.org/2000/svg">
<path d="M45 41.1667C45 42.8906 44.2098 44.5439 42.8033 45.7629C41.3968 46.9818 39.4891 47.6667 37.5 47.6667H20C18.0109 47.6667 16.1032 46.9818 14.6967 45.7629C13.2902 44.5439 12.5 42.8906 12.5 41.1667V15.1667H10V8.66667H21.25L23.75 6.5H33.75L36.25 8.66667H47.5V15.1667H45V41.1667ZM15 15.1667V41.1667C15 42.3159 15.5268 43.4181 16.4645 44.2308C17.4021 45.0435 18.6739 45.5 20 45.5H37.5C38.8261 45.5 40.0979 45.0435 41.0355 44.2308C41.9732 43.4181 42.5 42.3159 42.5 41.1667V15.1667H15ZM45 13V10.8333H35L32.5 8.66667H25L22.5 10.8333H12.5V13H45ZM20 19.5H22.5V41.1667H20V19.5ZM35 19.5H37.5V41.1667H35V19.5Z" fill="black"/>
</svg>
