<svg width="48" height="48" viewBox="0 0 48 48" fill="none" xmlns="http://www.w3.org/2000/svg">
	<path d="M17.115 43.5L14.633 35.862L12.055 43.5M12.914 40.922H16.256M35.945 40.922C35.9464 41.261 35.8808 41.5968 35.7517 41.9103C35.6227 42.2237 35.4328 42.5085 35.1932 42.7482C34.9535 42.9878 34.6687 43.1777 34.3553 43.3067C34.0418 43.4358 33.7059 43.5015 33.367 43.5C33.0281 43.5013 32.6923 43.4355 32.379 43.3064C32.0657 43.1773 31.781 42.9875 31.5415 42.7478C31.3019 42.5081 31.1122 42.2234 30.9832 41.91C30.8542 41.5967 30.7885 41.2609 30.79 40.922V38.345C30.7885 38.006 30.8542 37.6702 30.9833 37.3567C31.1123 37.0433 31.3021 36.7585 31.5418 36.5188C31.7815 36.2792 32.0663 36.0893 32.3797 35.9603C32.6931 35.8312 33.029 35.7655 33.368 35.767C34.799 35.767 35.85 36.913 35.85 38.345M29.816 43.5L27.334 35.862L24.756 43.5M25.615 40.922H28.956M24 4.5C18.064 4.5 13.252 9.34 13.252 15.31C13.252 23.775 21.462 31.623 23.606 34.117C23.6674 34.1886 23.7436 34.2461 23.8293 34.2855C23.915 34.3249 24.0082 34.3453 24.1025 34.3453C24.1968 34.3453 24.29 34.3249 24.3757 34.2855C24.4614 34.2461 24.5376 34.1886 24.599 34.117C26.693 31.64 34.748 23.775 34.748 15.31C34.748 9.34 29.936 4.5 24 4.5ZM24 19.365C20.413 19.372 18.611 15.013 21.144 12.46C23.677 9.907 28.015 11.71 28.015 15.318C28.015 17.548 26.217 19.357 24 19.357V19.365ZM18.88 43.5V35.862H20.121C21.1333 35.8646 22.1034 36.268 22.8192 36.9838C23.535 37.6996 23.9384 38.6697 23.941 39.682C23.9378 40.694 23.5343 41.6636 22.8185 42.3789C22.1028 43.0943 21.133 43.4974 20.121 43.5H18.881H18.88Z" stroke="black" stroke-linecap="round" stroke-linejoin="round" />
</svg>
