<svg width="64" height="63" viewBox="0 0 64 63" fill="none" xmlns="http://www.w3.org/2000/svg">
<path d="M54.8 9.64685C54.8 9.05623 54.6 8.66248 54.2 8.26873C53.8 7.87498 53.4 7.6781 52.8 7.6781C52.2 7.6781 51.8 7.87498 51.4 8.26873L46 13.5844C42 11.6156 37.4 10.4344 32 9.84373C22 10.8281 14 14.3719 8.4 20.6719C2.8 26.9719 0 30.5156 0 31.5C0 32.4844 3 36.0281 8.4 42.3281C9.8 43.9031 11.2 45.2812 13 46.4625L7.6 51.975C7.2 52.3687 7 52.7625 7 53.3531C7 53.9437 7.2 54.3375 7.6 54.7312C8 55.125 8.4 55.3219 9 55.3219C9.6 55.3219 10 55.125 10.4 54.7312L54.4 11.025C54.6 10.6312 54.8 10.2375 54.8 9.64685ZM14.4 42.1312C9.6 37.8 6.4 34.2562 4.8 31.5C6.6 28.5469 9.8 25.0031 14.4 20.8687C19 16.7344 25 14.175 32 13.7812C36 13.9781 39.8 14.9625 43 16.5375L39.6 19.8844C37.4 18.5062 35 17.7187 32 17.7187C28 17.7187 24.8 19.0969 22 21.6562C19.2 24.2156 18 27.5625 18 31.5C18 34.4531 18.8 37.0125 20.2 39.1781L16 43.5094C15.4 43.1156 14.8 42.525 14.4 42.1312ZM23.2 36.225C22.4 34.8469 22 33.2719 22 31.5C22 28.7437 23 26.3812 25 24.6094C27 22.8375 29.2 21.6562 32 21.6562C33.8 21.6562 35.4 22.05 36.6 22.8375L23.2 36.225ZM55.5999 20.6719C54.7999 19.6875 53.7999 18.9 52.9999 18.1125L49.9999 21.0656C54.5999 25.2 57.7999 28.7437 59.3999 31.5C57.5999 34.4531 54.3999 37.9969 49.7999 42.1312C45.1999 46.2656 38.9999 48.825 31.9999 49.2187C28.7999 49.0219 25.7999 48.4312 23.1999 47.4469L20.1999 50.4C23.7999 51.7781 27.5999 52.7625 31.9999 53.1562C41.9999 52.1719 49.9999 48.6281 55.5999 42.3281C61.1999 36.0281 64 32.4844 64 31.5C64 30.5156 60.9999 26.9719 55.5999 20.6719Z" fill="black"/>
<path d="M31.9994 41.3437C31.1994 41.3437 30.3994 41.1469 29.5994 40.95L26.3994 44.1C28.1994 44.8875 29.9994 45.2812 31.9994 45.2812C35.9994 45.2812 39.1994 43.9031 41.9994 41.3437C44.5994 38.7844 45.9994 35.4375 45.9994 31.5C45.9994 29.5312 45.5994 27.5625 44.7994 25.9875L41.5994 29.1375C41.7994 29.925 41.9994 30.7125 41.9994 31.5C41.9994 34.2562 40.9994 36.6187 38.9994 38.3906C36.9994 40.1625 34.7994 41.3437 31.9994 41.3437Z" fill="black"/>
</svg>
