<svg width="48" height="48" viewBox="0 0 91 90" fill="none" xmlns="http://www.w3.org/2000/svg">
	<path d="M79.625 84.375H11.375C9.86704 84.3735 8.42128 83.7804 7.35499 82.7258C6.28871 81.6713 5.68901 80.2414 5.6875 78.75V11.25C5.68901 9.75861 6.28871 8.32874 7.35499 7.27417C8.42128 6.2196 9.86704 5.62649 11.375 5.625H79.625C81.133 5.62649 82.5787 6.2196 83.645 7.27417C84.7113 8.32874 85.311 9.75861 85.3125 11.25V78.75C85.311 80.2414 84.7113 81.6713 83.645 82.7258C82.5787 83.7804 81.133 84.3735 79.625 84.375ZM11.375 11.25V78.75H79.625V11.25H11.375Z" fill="black" />
	<path d="M49.7656 36.5625C47.7971 36.5625 45.8728 35.9852 44.236 34.9035C42.5992 33.8219 41.3235 32.2845 40.5701 30.4858C39.8168 28.6871 39.6197 26.7078 40.0037 24.7983C40.3878 22.8888 41.3357 21.1348 42.7277 19.7582C44.1197 18.3815 45.8932 17.444 47.8239 17.0641C49.7546 16.6843 51.7558 16.8793 53.5745 17.6243C55.3932 18.3694 56.9477 19.6311 58.0413 21.2499C59.135 22.8687 59.7188 24.7718 59.7188 26.7188C59.7157 29.3286 58.6661 31.8306 56.8002 33.676C54.9343 35.5215 52.4044 36.5595 49.7656 36.5625ZM49.7656 22.5C48.922 22.5 48.0973 22.7474 47.3958 23.211C46.6943 23.6746 46.1476 24.3334 45.8247 25.1043C45.5019 25.8752 45.4174 26.7234 45.582 27.5418C45.7466 28.3602 46.1528 29.1119 46.7494 29.7019C47.3459 30.2919 48.106 30.6937 48.9334 30.8564C49.7609 31.0192 50.6186 30.9357 51.398 30.6164C52.1775 30.2971 52.8436 29.7563 53.3124 29.0626C53.7811 28.3688 54.0313 27.5531 54.0313 26.7188C54.0297 25.6003 53.5799 24.5281 52.7802 23.7373C51.9806 22.9464 50.8965 22.5015 49.7656 22.5ZM41.2344 73.125C39.2658 73.125 37.3415 72.5477 35.7047 71.466C34.0679 70.3844 32.7922 68.847 32.0389 67.0483C31.2856 65.2496 31.0885 63.2703 31.4725 61.3608C31.8565 59.4513 32.8045 57.6973 34.1965 56.3207C35.5884 54.944 37.3619 54.0065 39.2926 53.6266C41.2233 53.2468 43.2246 53.4418 45.0433 54.1868C46.862 54.9319 48.4164 56.1936 49.5101 57.8124C50.6038 59.4312 51.1875 61.3343 51.1875 63.2813C51.1845 65.8911 50.1349 68.3931 48.269 70.2386C46.4031 72.084 43.8732 73.122 41.2344 73.125ZM41.2344 59.0625C40.3907 59.0625 39.566 59.3099 38.8645 59.7735C38.163 60.2371 37.6163 60.8959 37.2935 61.6668C36.9706 62.4377 36.8861 63.2859 37.0507 64.1043C37.2153 64.9226 37.6216 65.6744 38.2181 66.2644C38.8147 66.8544 39.5747 67.2562 40.4022 67.4189C41.2296 67.5817 42.0873 67.4982 42.8668 67.1789C43.6462 66.8596 44.3124 66.3188 44.7811 65.6251C45.2498 64.9313 45.5 64.1156 45.5 63.2813C45.4985 62.1628 45.0486 61.0906 44.249 60.2998C43.4493 59.5089 42.3652 59.064 41.2344 59.0625ZM27.0156 50.625C25.0471 50.625 23.1228 50.0477 21.486 48.966C19.8492 47.8844 18.5735 46.347 17.8201 44.5483C17.0668 42.7496 16.8697 40.7703 17.2538 38.8608C17.6378 36.9513 18.5857 35.1973 19.9777 33.8207C21.3697 32.444 23.1432 31.5065 25.0739 31.1266C27.0046 30.7468 29.0058 30.9418 30.8245 31.6868C32.6432 32.4319 34.1977 33.6936 35.2914 35.3124C36.385 36.9312 36.9688 38.8343 36.9688 40.7813C36.9657 43.3911 35.9161 45.8931 34.0502 47.7385C32.1843 49.584 29.6544 50.622 27.0156 50.625ZM27.0156 36.5625C26.172 36.5625 25.3473 36.8099 24.6458 37.2735C23.9443 37.7371 23.3976 38.3959 23.0747 39.1668C22.7519 39.9377 22.6674 40.7859 22.832 41.6043C22.9966 42.4226 23.4028 43.1744 23.9994 43.7644C24.5959 44.3544 25.356 44.7562 26.1834 44.9189C27.0109 45.0817 27.8686 44.9982 28.648 44.6789C29.4275 44.3596 30.0937 43.8188 30.5624 43.1251C31.0311 42.4313 31.2813 41.6156 31.2813 40.7813C31.2797 39.6628 30.8299 38.5906 30.0302 37.7998C29.2306 37.0089 28.1465 36.564 27.0156 36.5625ZM63.9844 59.0625C62.0158 59.0625 60.0915 58.4852 58.4547 57.4035C56.8179 56.3219 55.5422 54.7845 54.7889 52.9858C54.0356 51.1871 53.8385 49.2078 54.2225 47.2983C54.6065 45.3888 55.5545 43.6348 56.9465 42.2582C58.3384 40.8815 60.1119 39.944 62.0426 39.5641C63.9733 39.1843 65.9746 39.3793 67.7933 40.1243C69.612 40.8694 71.1664 42.1311 72.2601 43.7499C73.3538 45.3687 73.9375 47.2718 73.9375 49.2188C73.9345 51.8286 72.8849 54.3306 71.019 56.176C69.1531 58.0215 66.6232 59.0595 63.9844 59.0625ZM63.9844 45C63.1407 45 62.316 45.2474 61.6145 45.711C60.913 46.1746 60.3663 46.8334 60.0435 47.6043C59.7206 48.3752 59.6361 49.2234 59.8007 50.0418C59.9653 50.8601 60.3716 51.6119 60.9681 52.2019C61.5647 52.7919 62.3247 53.1937 63.1522 53.3564C63.9796 53.5192 64.8373 53.4357 65.6168 53.1164C66.3962 52.7971 67.0624 52.2563 67.5311 51.5626C67.9998 50.8688 68.25 50.0531 68.25 49.2188C68.2485 48.1003 67.7986 47.0281 66.999 46.2373C66.1993 45.4464 65.1152 45.0015 63.9844 45Z" fill="black" />
</svg>
