<svg width="45" height="41" viewBox="0 0 45 41" fill="none" xmlns="http://www.w3.org/2000/svg">
<path d="M43.5098 20.0644C41.8558 16.1664 38.9844 12.7954 35.2506 10.368C31.5167 7.94062 27.084 6.5633 22.5004 6.40625C17.9167 6.5633 13.484 7.94062 9.75019 10.368C6.01634 12.7954 3.14498 16.1664 1.491 20.0644C1.3793 20.3459 1.3793 20.6541 1.491 20.9356C3.14498 24.8336 6.01634 28.2046 9.75019 30.632C13.484 33.0594 17.9167 34.4367 22.5004 34.5938C27.084 34.4367 31.5167 33.0594 35.2506 30.632C38.9844 28.2046 41.8558 24.8336 43.5098 20.9356C43.6215 20.6541 43.6215 20.3459 43.5098 20.0644ZM22.5004 32.0312C15.0473 32.0312 7.17225 26.9959 4.31757 20.5C7.17225 14.0041 15.0473 8.96875 22.5004 8.96875C29.9535 8.96875 37.8285 14.0041 40.6832 20.5C37.8285 26.9959 29.9535 32.0312 22.5004 32.0312Z" fill="black"/>
<path d="M22.5 12.8125C20.8312 12.8125 19.1999 13.2634 17.8124 14.1081C16.4248 14.9528 15.3434 16.1534 14.7048 17.5581C14.0662 18.9628 13.8991 20.5085 14.2246 21.9998C14.5502 23.491 15.3538 24.8608 16.5338 25.9359C17.7138 27.011 19.2172 27.7432 20.8539 28.0398C22.4906 28.3364 24.1871 28.1842 25.7289 27.6023C27.2706 27.0205 28.5884 26.0351 29.5155 24.7709C30.4426 23.5067 30.9375 22.0204 30.9375 20.5C30.9375 18.4611 30.0486 16.5058 28.4662 15.0641C26.8839 13.6224 24.7378 12.8125 22.5 12.8125ZM22.5 25.625C21.3875 25.625 20.2999 25.3244 19.3749 24.7613C18.4499 24.1981 17.7289 23.3977 17.3032 22.4613C16.8774 21.5248 16.766 20.4943 16.9831 19.5002C17.2001 18.506 17.7359 17.5928 18.5225 16.8761C19.3092 16.1593 20.3115 15.6712 21.4026 15.4735C22.4938 15.2757 23.6248 15.3772 24.6526 15.7651C25.6804 16.153 26.5589 16.8099 27.177 17.6527C27.7951 18.4955 28.125 19.4864 28.125 20.5C28.125 21.8592 27.5324 23.1628 26.4775 24.1239C25.4226 25.085 23.9918 25.625 22.5 25.625Z" fill="black"/>
</svg>
