<svg width="48" height="45" viewBox="0 0 48 45" fill="none" xmlns="http://www.w3.org/2000/svg">
<rect x="0.25" y="1.07593" width="47.5" height="42.8071" rx="2.75" fill="white" fill-opacity="0.13" stroke="black" stroke-width="0.5"/>
<mask id="mask0_167_6192" style="mask-type:alpha" maskUnits="userSpaceOnUse" x="12" y="11" width="24" height="24">
<rect x="12" y="11.3519" width="24" height="22.9659" fill="#D9D9D9"/>
</mask>
<g mask="url(#mask0_167_6192)">
<path d="M17 29.5332H18.4L27.025 21.2799L25.625 19.9402L17 28.1935V29.5332ZM31.3 19.8923L27.05 15.8733L28.45 14.5336C28.8333 14.1668 29.3043 13.9834 29.863 13.9834C30.421 13.9834 30.8917 14.1668 31.275 14.5336L32.675 15.8733C33.0583 16.2401 33.2583 16.6828 33.275 17.2015C33.2917 17.7195 33.1083 18.1619 32.725 18.5287L31.3 19.8923ZM29.85 21.3038L19.25 31.447H15V27.3802L25.6 17.2369L29.85 21.3038Z" fill="#E2711D"/>
</g>
</svg>
