<svg width="112" height="65" viewBox="0 0 112 65" fill="none" xmlns="http://www.w3.org/2000/svg">
<rect width="112" height="65" fill="black"/>
<path d="M18.6667 32.5H28M84 32.5H93.3334M2.33337 44.6875V54.1667H4.66671C9.31177 53.7378 13.9813 53.4036 18.6667 53.1646M2.33337 44.6875H4.66671C8.37974 44.6875 11.9407 45.5435 14.5662 47.0673C17.1917 48.591 18.6667 50.6576 18.6667 52.8125V53.1646M2.33337 44.6875V20.3125M18.6667 53.1646C31.0806 52.5162 43.5362 52.1729 56 52.1354C65.9587 52.1354 80.6447 52.4794 93.3334 53.1646M2.33337 20.3125V10.8333H4.66671C9.31179 11.2621 13.9813 11.5963 18.6667 11.8354M2.33337 20.3125H4.66671C8.37974 20.3125 11.9407 19.4565 14.5662 17.9327C17.1917 16.409 18.6667 14.3424 18.6667 12.1875V11.8354M93.3334 53.1646C98.0188 53.4033 102.688 53.7376 107.333 54.1667H109.667V44.6875M93.3334 53.1646V52.8125C93.3334 50.6576 94.8084 48.591 97.4339 47.0673C100.059 45.5435 103.62 44.6875 107.333 44.6875H109.667M109.667 44.6875V20.3125M109.667 20.3125V10.8333H107.333C102.688 11.2624 98.0188 11.5966 93.3334 11.8354M109.667 20.3125H107.333C103.62 20.3125 100.059 19.4565 97.4339 17.9327C94.8084 16.409 93.3334 14.3424 93.3334 12.1875V11.8354M93.3334 11.8354C80.9195 12.4838 68.4639 12.8272 56 12.8646C43.5362 12.8272 31.0806 12.4838 18.6667 11.8354M56 39.2708C52.9059 39.2708 49.9384 38.5575 47.7505 37.2877C45.5625 36.0179 44.3334 34.2957 44.3334 32.5C44.3334 30.7043 45.5625 28.9821 47.7505 27.7123C49.9384 26.4425 52.9059 25.7292 56 25.7292C59.0942 25.7292 62.0617 26.4425 64.2496 27.7123C66.4375 28.9821 67.6667 30.7043 67.6667 32.5C67.6667 34.2957 66.4375 36.0179 64.2496 37.2877C62.0617 38.5575 59.0942 39.2708 56 39.2708Z" stroke="white"/>
</svg>
