<svg width="47" height="44" viewBox="0 0 47 44" fill="none" xmlns="http://www.w3.org/2000/svg">
<path d="M29.375 23.8333H32.3125V29.0033L37.0908 31.5883L35.6221 33.9716L29.375 30.5983V23.8333ZM35.5046 17.105C33.7421 12.485 29.0421 9.16663 23.5 9.16663C18.2125 9.16663 13.7083 12.1916 11.75 16.5C6.34499 16.5 1.95833 20.6066 1.95833 25.6666C1.95833 30.7266 6.34499 34.8333 11.75 34.8333H18.9567C21.1696 39.16 25.8696 42.1666 31.3333 42.1666C38.9121 42.1666 45.0417 36.4283 45.0417 29.3333C45.0417 23.6133 41.0467 18.7733 35.5046 17.105ZM11.75 31.1666C8.49916 31.1666 5.87499 28.71 5.87499 25.6666C5.87499 22.6233 8.49916 20.1666 11.75 20.1666C12.4746 20.1666 13.1796 20.295 13.8258 20.515C14.2038 18.3687 15.3841 16.418 17.1561 15.011C18.9281 13.6039 21.1765 12.8321 23.5 12.8333C26.6921 12.8333 29.5121 14.2816 31.3333 16.5C23.735 16.5 17.625 22.2566 17.625 29.3333C17.625 29.9566 17.6837 30.5616 17.7817 31.1666H11.75ZM31.3333 38.5C25.9283 38.5 21.5417 34.3933 21.5417 29.3333C21.5417 24.2733 25.9283 20.1666 31.3333 20.1666C36.7383 20.1666 41.125 24.2733 41.125 29.3333C41.125 34.3933 36.7383 38.5 31.3333 38.5Z" fill="black"/>
</svg>
