<svg width="44" height="40" viewBox="0 0 44 40" fill="none" xmlns="http://www.w3.org/2000/svg">
<path fill-rule="evenodd" clip-rule="evenodd" d="M39.4753 19.31L38.0417 18.2666V35.4166H40.3333C40.698 35.4166 41.0477 35.5483 41.3056 35.7827C41.5635 36.0172 41.7083 36.3351 41.7083 36.6666C41.7083 36.9981 41.5635 37.3161 41.3056 37.5505C41.0477 37.7849 40.698 37.9166 40.3333 37.9166H3.66667C3.302 37.9166 2.95226 37.7849 2.6944 37.5505C2.43654 37.3161 2.29167 36.9981 2.29167 36.6666C2.29167 36.3351 2.43654 36.0172 2.6944 35.7827C2.95226 35.5483 3.302 35.4166 3.66667 35.4166H5.95834V18.2666L4.52651 19.31C4.38542 19.4125 4.2235 19.4888 4.04999 19.5344C3.87649 19.5801 3.69478 19.5942 3.51527 19.576C3.33575 19.5579 3.16193 19.5077 3.00373 19.4284C2.84553 19.3492 2.70605 19.2424 2.59326 19.1141C2.48046 18.9859 2.39656 18.8387 2.34634 18.6809C2.29612 18.5232 2.28057 18.358 2.30057 18.1948C2.32058 18.0316 2.37574 17.8736 2.46292 17.7298C2.5501 17.586 2.66759 17.4592 2.80867 17.3566L17.7045 6.52329C18.9236 5.6364 20.4386 5.1532 22 5.1532C23.5614 5.1532 25.0764 5.6364 26.2955 6.52329L41.1913 17.3566C41.3349 17.4583 41.4547 17.5849 41.5441 17.729C41.6334 17.8731 41.6904 18.0319 41.7117 18.1961C41.733 18.3604 41.7182 18.5269 41.6683 18.6859C41.6183 18.845 41.5341 18.9934 41.4206 19.1227C41.307 19.2519 41.1664 19.3594 41.0068 19.4389C40.8472 19.5183 40.6719 19.5682 40.491 19.5856C40.31 19.6031 40.1271 19.5877 39.9528 19.5403C39.7784 19.493 39.6161 19.4147 39.4753 19.31ZM22 11.25C20.6629 11.25 19.3805 11.7328 18.435 12.5924C17.4895 13.4519 16.9583 14.6177 16.9583 15.8333C16.9583 17.0489 17.4895 18.2147 18.435 19.0742C19.3805 19.9337 20.6629 20.4166 22 20.4166C23.3371 20.4166 24.6195 19.9337 25.565 19.0742C26.5105 18.2147 27.0417 17.0489 27.0417 15.8333C27.0417 14.6177 26.5105 13.4519 25.565 12.5924C24.6195 11.7328 23.3371 11.25 22 11.25ZM25.201 22.1866C24.3595 22.0833 23.309 22.0833 22.0898 22.0833H21.9102C20.691 22.0833 19.6405 22.0833 18.799 22.1866C17.8988 22.2966 17.0335 22.545 16.3332 23.1816C15.6328 23.8183 15.3597 24.605 15.2387 25.4233C15.125 26.1883 15.125 27.1433 15.125 28.2516V35.4166H28.875V28.045C28.875 27.025 28.8677 26.14 28.7613 25.4233C28.6403 24.605 28.3672 23.8183 27.6668 23.1816C26.9665 22.545 26.103 22.2966 25.201 22.1866Z" fill="black"/>
<g opacity="0.5">
<path d="M19.7083 15.8333C19.7083 15.2808 19.9498 14.7509 20.3796 14.3602C20.8093 13.9695 21.3922 13.75 22 13.75C22.6078 13.75 23.1907 13.9695 23.6205 14.3602C24.0502 14.7509 24.2917 15.2808 24.2917 15.8333C24.2917 16.3859 24.0502 16.9158 23.6205 17.3065C23.1907 17.6972 22.6078 17.9167 22 17.9167C21.3922 17.9167 20.8093 17.6972 20.3796 17.3065C19.9498 16.9158 19.7083 16.3859 19.7083 15.8333Z" fill="black"/>
<path d="M19.7083 15.8333C19.7083 15.2808 19.9498 14.7509 20.3796 14.3602C20.8093 13.9695 21.3922 13.75 22 13.75C22.6078 13.75 23.1907 13.9695 23.6205 14.3602C24.0502 14.7509 24.2917 15.2808 24.2917 15.8333C24.2917 16.3859 24.0502 16.9158 23.6205 17.3065C23.1907 17.6972 22.6078 17.9167 22 17.9167C21.3922 17.9167 20.8093 17.6972 20.3796 17.3065C19.9498 16.9158 19.7083 16.3859 19.7083 15.8333Z" fill="black"/>
</g>
<path opacity="0.5" d="M22.0917 22.0833C23.309 22.0833 24.3595 22.0833 25.201 22.1867C26.103 22.2967 26.9665 22.545 27.6668 23.1817C28.3672 23.8183 28.6403 24.6033 28.7613 25.4233C28.8677 26.14 28.875 27.0233 28.875 28.045V35.4167H15.125V28.25C15.125 27.1433 15.125 26.1883 15.2387 25.4233C15.3597 24.6033 15.6328 23.8183 16.3332 23.1817C17.0335 22.545 17.8988 22.2967 18.799 22.1867C19.6405 22.0833 20.691 22.0833 21.9102 22.0833H22.0898H22.0917ZM29.3333 5H33.9167C34.1598 5 34.3929 5.0878 34.5648 5.24408C34.7368 5.40036 34.8333 5.61232 34.8333 5.83333V12.7333L28.4167 8.06667V5.83333C28.4167 5.61232 28.5132 5.40036 28.6852 5.24408C28.8571 5.0878 29.0902 5 29.3333 5Z" fill="black"/>
</svg>
