<svg width="48" height="45" viewBox="0 0 48 45" fill="none" xmlns="http://www.w3.org/2000/svg">
<rect x="0.25" y="1.07593" width="47.5" height="42.8071" rx="2.75" fill="white" fill-opacity="0.13" stroke="black" stroke-width="0.5"/>
<path d="M17 29.5333C16.7167 29.5333 16.479 29.4414 16.287 29.2577C16.095 29.0739 15.9993 28.8468 16 28.5763C16 28.3052 16.096 28.0778 16.288 27.8941C16.48 27.7103 16.7173 27.6188 17 27.6194H18V20.921C18 19.5973 18.4167 18.421 19.25 17.392C20.0833 16.363 21.1667 15.6893 22.5 15.371V14.7011C22.5 14.3024 22.646 13.9633 22.938 13.6839C23.23 13.4045 23.584 13.2651 24 13.2657C24.4167 13.2657 24.771 13.4055 25.063 13.6849C25.355 13.9643 25.5007 14.303 25.5 14.7011V15.371C26.8333 15.6899 27.9167 16.3639 28.75 17.3929C29.5833 18.4219 30 19.598 30 20.921V27.6194H31C31.2833 27.6194 31.521 27.7113 31.713 27.895C31.905 28.0787 32.0007 28.3059 32 28.5763C32 28.8475 31.904 29.0749 31.712 29.2586C31.52 29.4423 31.2827 29.5339 31 29.5333H17ZM24 32.404C23.45 32.404 22.979 32.2164 22.587 31.8413C22.195 31.4662 21.9993 31.0158 22 30.4902H26C26 31.0165 25.804 31.4672 25.412 31.8423C25.02 32.2174 24.5493 32.4046 24 32.404ZM20 27.6194H28V20.921C28 19.8684 27.6083 18.9674 26.825 18.2178C26.0417 17.4682 25.1 17.0934 24 17.0934C22.9 17.0934 21.9583 17.4682 21.175 18.2178C20.3917 18.9674 20 19.8684 20 20.921V27.6194ZM15 20.921C14.7167 20.921 14.479 20.8174 14.287 20.61C14.095 20.4027 14.016 20.1635 14.05 19.8924C14.1833 18.6962 14.5333 17.5837 15.1 16.5547C15.6667 15.5257 16.3917 14.6287 17.275 13.8638C17.4917 13.6884 17.7377 13.6086 18.013 13.6246C18.2883 13.6405 18.509 13.7602 18.675 13.9834C18.8417 14.2067 18.9083 14.4459 18.875 14.7011C18.8417 14.9563 18.7167 15.1796 18.5 15.371C17.85 15.9611 17.3167 16.6468 16.9 17.4283C16.4833 18.2098 16.2083 19.0551 16.075 19.9641C16.0417 20.2353 15.925 20.4627 15.725 20.6464C15.525 20.8301 15.2833 20.9217 15 20.921ZM33 20.921C32.7167 20.921 32.475 20.8292 32.275 20.6455C32.075 20.4617 31.9583 20.2346 31.925 19.9641C31.7917 19.0551 31.5167 18.2098 31.1 17.4283C30.6833 16.6468 30.15 15.9611 29.5 15.371C29.2833 15.1796 29.1583 14.9563 29.125 14.7011C29.0917 14.4459 29.1583 14.2067 29.325 13.9834C29.4917 13.7602 29.7127 13.6405 29.988 13.6246C30.2633 13.6086 30.509 13.6884 30.725 13.8638C31.6083 14.6293 32.3333 15.5263 32.9 16.5547C33.4667 17.583 33.8167 18.6956 33.95 19.8924C33.9833 20.1635 33.9043 20.4027 33.713 20.61C33.5217 20.8174 33.284 20.921 33 20.921Z" fill="#E2711D"/>
</svg>
