<svg width="47" height="44" viewBox="0 0 47 44" fill="none" xmlns="http://www.w3.org/2000/svg">
<path d="M41.125 41.25H5.875C5.09617 41.2493 4.34945 40.9593 3.79873 40.4437C3.24801 39.9282 2.93828 39.2291 2.9375 38.5V5.5C2.93828 4.77088 3.24801 4.07183 3.79873 3.55626C4.34945 3.04069 5.09617 2.75073 5.875 2.75H41.125C41.9038 2.75073 42.6505 3.04069 43.2013 3.55626C43.752 4.07183 44.0617 4.77088 44.0625 5.5V38.5C44.0617 39.2291 43.752 39.9282 43.2013 40.4437C42.6505 40.9593 41.9038 41.2493 41.125 41.25ZM5.875 5.5V38.5H41.125V5.5H5.875Z" fill="black"/>
<path d="M25.7031 17.875C24.6864 17.875 23.6925 17.5928 22.8471 17.0639C22.0018 16.5351 21.3429 15.7835 20.9538 14.9042C20.5647 14.0248 20.4629 13.0572 20.6613 12.1236C20.8596 11.1901 21.3492 10.3326 22.0682 9.65955C22.7871 8.98651 23.7031 8.52816 24.7002 8.34247C25.6974 8.15678 26.731 8.25209 27.6704 8.61633C28.6097 8.98058 29.4125 9.59741 29.9774 10.3888C30.5423 11.1802 30.8438 12.1107 30.8438 13.0625C30.8422 14.3384 30.3001 15.5616 29.3364 16.4638C28.3727 17.366 27.066 17.8735 25.7031 17.875ZM25.7031 11C25.2674 11 24.8414 11.121 24.4791 11.3476C24.1168 11.5742 23.8345 11.8963 23.6677 12.2732C23.501 12.6501 23.4573 13.0648 23.5423 13.4649C23.6273 13.865 23.8372 14.2325 24.1453 14.5209C24.4534 14.8094 24.846 15.0058 25.2733 15.0854C25.7007 15.165 26.1437 15.1241 26.5462 14.968C26.9488 14.8119 27.2929 14.5475 27.535 14.2084C27.777 13.8692 27.9063 13.4704 27.9063 13.0625C27.9055 12.5157 27.6731 11.9915 27.2601 11.6049C26.8471 11.2183 26.2872 11.0007 25.7031 11ZM21.2969 35.75C20.2802 35.75 19.2863 35.4678 18.4409 34.9389C17.5955 34.4101 16.9366 33.6585 16.5476 32.7792C16.1585 31.8998 16.0567 30.9322 16.255 29.9986C16.4534 29.0651 16.943 28.2076 17.6619 27.5345C18.3808 26.8615 19.2968 26.4032 20.294 26.2175C21.2912 26.0318 22.3248 26.1271 23.2641 26.4913C24.2034 26.8556 25.0063 27.4724 25.5711 28.2638C26.136 29.0552 26.4375 29.9857 26.4375 30.9375C26.4359 32.2134 25.8938 33.4366 24.9301 34.3388C23.9664 35.2411 22.6598 35.7485 21.2969 35.75ZM21.2969 28.875C20.8611 28.875 20.4352 28.996 20.0729 29.2226C19.7106 29.4492 19.4282 29.7713 19.2615 30.1482C19.0947 30.5251 19.0511 30.9398 19.1361 31.3399C19.2211 31.74 19.4309 32.1075 19.739 32.3959C20.0471 32.6844 20.4397 32.8808 20.8671 32.9604C21.2944 33.04 21.7374 32.9991 22.14 32.843C22.5425 32.6869 22.8866 32.4225 23.1287 32.0834C23.3708 31.7442 23.5 31.3454 23.5 30.9375C23.4992 30.3907 23.2669 29.8665 22.8539 29.4799C22.4409 29.0933 21.8809 28.8757 21.2969 28.875ZM13.9531 24.75C12.9364 24.75 11.9425 24.4678 11.0971 23.9389C10.2518 23.4101 9.59289 22.6585 9.20381 21.7792C8.81473 20.8998 8.71293 19.9322 8.91128 18.9986C9.10963 18.0651 9.59923 17.2076 10.3182 16.5346C11.0371 15.8615 11.9531 15.4032 12.9502 15.2175C13.9474 15.0318 14.981 15.1271 15.9204 15.4913C16.8597 15.8556 17.6625 16.4724 18.2274 17.2638C18.7923 18.0552 19.0938 18.9857 19.0938 19.9375C19.0922 21.2134 18.5501 22.4366 17.5864 23.3388C16.6227 24.241 15.316 24.7485 13.9531 24.75ZM13.9531 17.875C13.5174 17.875 13.0914 17.996 12.7291 18.2226C12.3668 18.4492 12.0845 18.7713 11.9177 19.1482C11.751 19.5251 11.7073 19.9398 11.7923 20.3399C11.8773 20.74 12.0872 21.1075 12.3953 21.3959C12.7034 21.6844 13.096 21.8808 13.5233 21.9604C13.9507 22.04 14.3937 21.9991 14.7962 21.843C15.1988 21.6869 15.5429 21.4225 15.785 21.0834C16.027 20.7442 16.1563 20.3454 16.1563 19.9375C16.1555 19.3907 15.9231 18.8665 15.5101 18.4799C15.0971 18.0933 14.5372 17.8757 13.9531 17.875ZM33.0469 28.875C32.0302 28.875 31.0363 28.5928 30.1909 28.0639C29.3455 27.5351 28.6866 26.7835 28.2976 25.9042C27.9085 25.0248 27.8067 24.0572 28.005 23.1236C28.2034 22.1901 28.693 21.3326 29.4119 20.6595C30.1308 19.9865 31.0468 19.5282 32.044 19.3425C33.0412 19.1568 34.0748 19.2521 35.0141 19.6163C35.9534 19.9806 36.7563 20.5974 37.3211 21.3888C37.886 22.1802 38.1875 23.1107 38.1875 24.0625C38.1859 25.3384 37.6439 26.5616 36.6801 27.4638C35.7164 28.366 34.4098 28.8735 33.0469 28.875ZM33.0469 22C32.6111 22 32.1852 22.121 31.8229 22.3476C31.4606 22.5742 31.1782 22.8963 31.0115 23.2732C30.8447 23.6501 30.8011 24.0648 30.8861 24.4649C30.9711 24.865 31.1809 25.2325 31.489 25.5209C31.7971 25.8094 32.1897 26.0058 32.6171 26.0854C33.0444 26.165 33.4874 26.1241 33.89 25.968C34.2925 25.8119 34.6366 25.5475 34.8787 25.2084C35.1208 24.8692 35.25 24.4704 35.25 24.0625C35.2492 23.5157 35.0169 22.9915 34.6039 22.6049C34.1909 22.2183 33.6309 22.0007 33.0469 22Z" fill="black"/>
</svg>
