<svg width="119" height="151" viewBox="0 0 119 151" fill="none" xmlns="http://www.w3.org/2000/svg">
<path d="M25 6.3131C53.4647 61.6443 50.0365 70.0664 7.57532 22.7736C26.9463 53.3658 50.1201 77.5288 74.484 99.6744C63.401 115.825 59.258 133.944 65.3538 141.369C71.85 149.281 87.5075 142.045 100.275 125.166C113.043 108.288 118.094 88.1398 111.599 80.2276C105.463 72.7549 91.2265 78.8798 78.907 93.8037C62.1782 63.0679 45.2298 32.6066 24.9998 6.3131H25ZM100.515 84.9927C102.808 84.9514 104.753 85.7323 106.151 87.4352C111.122 93.4893 107.292 108.896 97.5226 121.811C87.7527 134.727 75.6849 140.335 70.7141 134.281C66.0768 128.634 69.244 114.819 77.6217 102.504C78.483 103.278 79.3428 104.056 80.2072 104.826C74.048 113.991 71.7842 124.156 75.2319 128.355C78.9577 132.894 87.9338 128.737 95.2565 119.056C102.579 109.375 105.483 97.8247 101.757 93.2873C98.2233 88.9838 90.0019 92.5403 82.9163 101.176C82.3134 100.067 81.7107 98.9587 81.108 97.8492C87.7381 89.7987 95.0952 85.0897 100.515 84.9927ZM95.3943 96.0154C96.7098 95.9918 97.8247 96.44 98.6266 97.4162C101.478 100.889 99.2836 109.732 93.6806 117.139C88.077 124.547 81.1554 127.763 78.3041 124.291C75.6905 121.108 77.4032 113.4 82.0228 106.43C83.4118 107.661 84.8049 108.886 86.1995 110.108C83.9343 113.352 82.9393 116.791 83.9768 118.107C85.1166 119.553 88.2727 117.89 91.0292 114.393C93.7857 110.895 95.0961 106.881 93.9563 105.434C92.8458 104.025 89.8192 105.575 87.1143 108.891C86.1358 107.094 85.1573 105.297 84.1799 103.499C88.0056 98.8168 92.2622 96.0714 95.3943 96.0151V96.0154Z" fill="white"/>
</svg>
