<svg width="124" height="123" viewBox="0 0 124 123" fill="none" xmlns="http://www.w3.org/2000/svg">
<path d="M38.75 49.9688H85.25V57.6562H38.75V49.9688ZM38.75 69.1875H85.25V76.875H38.75V69.1875Z" fill="white"/>
<path d="M116.25 24.6538L110.771 19.2188L97.7895 32.0953C95.9359 29.8786 93.8785 27.8377 91.6437 25.9991L104.625 13.1226L99.1458 7.6875L85.157 21.5634C76.3065 16.4921 66.0162 14.4599 55.8824 15.7821C45.7487 17.1043 36.3381 21.7069 29.1108 28.876C21.8834 36.0451 17.2433 45.3797 15.9104 55.4318C14.5774 65.4838 16.6262 75.6911 21.7388 84.4703L7.75 98.3462L13.2292 103.781L26.2105 90.9047C28.0641 93.1214 30.1215 95.1623 32.3563 97.0009L19.375 109.877L24.8542 115.312L38.843 101.437C47.6935 106.508 57.9838 108.54 68.1176 107.218C78.2513 105.896 87.6619 101.293 94.8892 94.124C102.117 86.9549 106.757 77.6203 108.09 67.5682C109.423 57.5162 107.374 47.3089 102.261 38.5298L116.25 24.6538ZM62 99.9375C54.336 99.9375 46.8441 97.6832 40.4717 93.4596C34.0992 89.236 29.1326 83.2329 26.1997 76.2094C23.2668 69.1859 22.4994 61.4574 23.9946 54.0012C25.4897 46.5451 29.1803 39.6962 34.5996 34.3206C40.0189 28.945 46.9235 25.2842 54.4403 23.8011C61.957 22.3179 69.7483 23.0791 76.829 25.9884C83.9096 28.8976 89.9615 33.8243 94.2194 40.1453C98.4773 46.4663 100.75 53.8978 100.75 61.5C100.739 71.6908 96.6525 81.4611 89.3879 88.6671C82.1233 95.8731 72.2737 99.9263 62 99.9375Z" fill="white"/>
</svg>
