<svg width="44" height="44" viewBox="0 0 44 44" fill="none" xmlns="http://www.w3.org/2000/svg">
<path d="M13.6984 0L12.0227 13.3727H15.7008L19.9203 0.776875L13.6984 0ZM21.5789 0.6875L17.3336 13.3727L30.1984 13.3813L33.1461 4.56328L21.5789 0.6875ZM11.9453 1.60187L5.76641 2.27562L6.97812 13.3727H10.4758L11.9453 1.60187ZM1.97656 10.7946C0.988281 10.7946 0.328281 11.5509 0.148672 12.2727C0.0592968 12.6337 0.11 12.9259 0.211406 13.0891C0.311953 13.2438 0.451172 13.3727 0.945312 13.3727H5.42266L5.13906 10.7946H1.97656ZM32.6906 10.7946L31.8312 13.3727H35.9133C35.6898 12.943 35.5953 12.4876 35.6555 12.0321C35.7156 11.5852 35.8875 11.1813 36.1109 10.7946H32.6906ZM0 14.9196V36.1376C0 36.5759 0.239766 37.0915 0.633359 37.4868C1.02781 37.8821 1.54688 38.1227 1.97656 38.1227L34.9766 38.1313C35.4062 38.1313 35.9219 37.8907 36.3172 37.4954C36.7125 37.1001 36.9531 36.5845 36.9531 36.1462V30.0446H29.4766C25.6953 30.0446 25.6953 22.9977 29.4766 22.9977H36.9531V14.9282L0 14.9196ZM29.4766 24.5446C27.7578 24.5446 27.7578 28.4977 29.4766 28.4977H31.393C30.6195 28.1712 30.0781 27.4063 30.0781 26.5212C30.0781 25.636 30.6195 24.8712 31.393 24.5446H29.4766ZM33.0602 24.5446C33.8336 24.8712 34.375 25.636 34.375 26.5212C34.375 27.4063 33.8336 28.1712 33.0602 28.4977H38.3281V24.5446H33.0602ZM32.2266 25.9196C31.8828 25.9196 31.625 26.1774 31.625 26.5212C31.625 26.8649 31.8828 27.1227 32.2266 27.1227C32.5703 27.1227 32.8281 26.8649 32.8281 26.5212C32.8281 26.1774 32.5703 25.9196 32.2266 25.9196Z" fill="black"/>
</svg>
